<?xml version="1.0" encoding="UTF-8" ?>
<!DOCTYPE svg PUBLIC "-//W3C//DTD SVG 1.1//EN" "http://www.w3.org/Graphics/SVG/1.1/DTD/svg11.dtd">
<svg width="200pt" height="200pt" viewBox="70 30 70 70" version="1.1" xmlns="http://www.w3.org/2000/svg">

<path fill="#000000" d=" M 84.17 39.20 C 89.55 35.66 96.68 35.03 102.62 37.51 C 109.02 40.08 113.80 46.19 114.79 53.01 C 114.92 54.33 114.99 55.66 115.02 56.99 C 114.91 58.34 114.69 59.68 114.37 61.00 C 113.96 62.36 113.45 63.69 112.88 64.98 C 112.15 66.41 111.22 67.74 110.22 68.99 C 108.85 70.50 107.29 71.82 105.61 72.96 C 99.61 76.73 91.59 77.02 85.41 73.52 C 79.10 70.13 74.94 63.14 75.01 55.98 C 74.95 49.31 78.54 42.77 84.17 39.20 Z" />
<path fill="#ffffff" d=" M 90.53 40.63 C 99.53 37.66 109.91 44.50 110.86 53.89 C 112.51 63.51 103.53 72.89 93.88 71.83 C 85.35 71.68 78.30 63.39 79.03 54.98 C 79.37 48.41 84.19 42.40 90.53 40.63 Z" />
<path fill="#00b0ff" d=" M 114.79 53.01 C 119.19 52.99 123.59 53.00 128.00 53.00 C 128.00 54.33 128.00 55.66 128.00 57.00 C 123.67 57.00 119.35 57.01 115.02 56.99 C 114.99 55.66 114.92 54.33 114.79 53.01 Z" />
<path fill="#000000" d=" M 92.96 53.96 C 96.97 54.04 100.99 53.98 105.01 54.00 C 105.02 54.75 105.02 56.25 105.02 57.00 C 101.37 57.02 97.72 56.93 94.08 57.10 C 93.35 60.17 94.92 63.95 93.07 66.59 L 92.16 66.19 C 92.53 62.18 91.00 57.60 92.96 53.96 Z" />
<path fill="#00b0ff" d=" M 112.88 64.98 C 113.45 63.69 113.96 62.36 114.37 61.00 C 118.91 61.00 123.46 61.00 128.00 61.00 C 128.00 62.33 128.00 63.66 128.00 65.00 C 122.96 65.00 117.92 65.02 112.88 64.98 Z" />
<path fill="#00b0ff" d=" M 105.61 72.96 C 107.29 71.82 108.85 70.50 110.22 68.99 C 116.14 69.01 122.07 68.99 128.00 69.00 C 128.00 70.33 128.00 71.66 128.00 73.00 C 120.54 72.98 113.07 73.04 105.61 72.96 Z" />
<path fill="#00b0ff" d=" M 92.00 77.00 C 104.00 77.00 116.00 77.00 128.00 77.00 C 128.00 78.33 128.00 79.67 128.00 81.00 C 116.00 81.00 104.00 81.00 92.00 81.00 C 92.00 79.66 92.00 78.33 92.00 77.00 Z" />
<path fill="#00b0ff" d=" M 92.00 85.00 C 104.00 85.00 116.00 85.00 128.00 85.00 C 128.00 86.33 128.00 87.66 128.00 89.00 C 116.00 89.00 104.00 89.00 92.00 89.00 C 92.00 87.66 92.00 86.33 92.00 85.00 Z" />
</svg>
